# xmcd
#
# Track frame offsets:
#	150
#	32590
#	69195
#	110459
#	130505
#	149207
#	172270
#
# Disc length: 2636 seconds
#
# Revision: 1
# Processed by: cddbd v1.5.2PL0 Copyright (c) Steve Scherf et al.
# Submitted via: audiograbber 1.83.01
#
DISCID=620a4a07
DTITLE=Grateful Dead - 71-02-20 Capitol Theatre, Port Chester NY
DYEAR=1900
DGENRE=
TTITLE0=Sugar Magnolia
TTITLE1=Truckin'
TTITLE2=Loser
TTITLE3=Next Time You See Me
TTITLE4=Greatest Story Ever Told
TTITLE5=Johnny B Goode
TTITLE6=Ripple
EXTD=
EXTT0=
EXTT1=
EXTT2=
EXTT3=
EXTT4=
EXTT5=
EXTT6=
PLAYORDER=
